<svg width="20" height="20" viewBox="0 0 20 20" fill="none" xmlns="http://www.w3.org/2000/svg">
<path d="M6.29545 15.5V14.7216L10.0966 10.4489C10.5928 9.88826 10.9924 9.40909 11.2955 9.01136C11.5985 8.61364 11.8182 8.24621 11.9545 7.90909C12.0947 7.57197 12.1648 7.22159 12.1648 6.85795C12.1648 6.41477 12.0606 6.02841 11.8523 5.69886C11.6477 5.36553 11.3655 5.10606 11.0057 4.92045C10.6458 4.73485 10.2405 4.64205 9.78977 4.64205C9.3125 4.64205 8.89394 4.74432 8.53409 4.94886C8.17803 5.15341 7.90152 5.43371 7.70455 5.78977C7.50758 6.14583 7.40909 6.55492 7.40909 7.01705H6.39205C6.39205 6.37311 6.53977 5.80303 6.83523 5.30682C7.13447 4.80682 7.54167 4.41477 8.05682 4.13068C8.57576 3.84659 9.16288 3.70455 9.81818 3.70455C10.4659 3.70455 11.0417 3.8447 11.5455 4.125C12.0492 4.40151 12.4451 4.77841 12.733 5.25568C13.0208 5.73295 13.1648 6.26705 13.1648 6.85795C13.1648 7.28598 13.089 7.70076 12.9375 8.10227C12.7898 8.50379 12.5341 8.95076 12.1705 9.44318C11.8068 9.93561 11.303 10.5379 10.6591 11.25L7.77273 14.4716V14.5455H13.5284V15.5H6.29545Z" fill="#8A8A8A"/>
<rect x="0.5" y="0.5" width="19" height="19" rx="9.5" stroke="#8A8A8A"/>
</svg>
