<svg width="50" height="30" viewBox="0 0 50 30" fill="none" xmlns="http://www.w3.org/2000/svg">
<path d="M20.1193 22V21.027L24.8707 15.6861C25.491 14.9853 25.9905 14.3864 26.3693 13.8892C26.7481 13.392 27.0227 12.9328 27.1932 12.5114C27.3684 12.09 27.456 11.652 27.456 11.1974C27.456 10.6435 27.3258 10.1605 27.0653 9.74858C26.8097 9.33191 26.4569 9.00758 26.0071 8.77557C25.5573 8.54356 25.0507 8.42756 24.4872 8.42756C23.8906 8.42756 23.3674 8.5554 22.9176 8.81108C22.4725 9.06676 22.1269 9.41714 21.8807 9.86222C21.6345 10.3073 21.5114 10.8187 21.5114 11.3963H20.2401C20.2401 10.5914 20.4247 9.87879 20.794 9.25852C21.1681 8.63352 21.6771 8.14347 22.321 7.78835C22.9697 7.43324 23.7036 7.25568 24.5227 7.25568C25.3324 7.25568 26.0521 7.43087 26.6818 7.78125C27.3116 8.12689 27.8063 8.59801 28.1662 9.1946C28.526 9.79119 28.706 10.4588 28.706 11.1974C28.706 11.7325 28.6113 12.2509 28.4219 12.7528C28.2372 13.2547 27.9176 13.8134 27.4631 14.429C27.0085 15.0445 26.3788 15.7973 25.5739 16.6875L21.9659 20.7145V20.8068H29.1605V22H20.1193Z" fill="#8A8A8A"/>
<rect x="0.5" y="0.5" width="49" height="29" rx="14.5" stroke="#8A8A8A"/>
</svg>
