<svg width="50" height="30" viewBox="0 0 50 30" fill="none" xmlns="http://www.w3.org/2000/svg">
<path d="M24.8423 22.1989C23.9474 22.1989 23.1473 22.0379 22.4418 21.7159C21.7363 21.3892 21.1776 20.937 20.7656 20.3594C20.3537 19.7817 20.1359 19.1165 20.1122 18.3636H21.4545C21.4782 18.8939 21.6416 19.358 21.9446 19.7557C22.2476 20.1487 22.6501 20.4564 23.152 20.679C23.6539 20.8968 24.2126 21.0057 24.8281 21.0057C25.5005 21.0057 26.0923 20.8802 26.6037 20.6293C27.1198 20.3783 27.5223 20.035 27.8111 19.5994C28.1046 19.1591 28.2514 18.6619 28.2514 18.108C28.2514 17.5208 28.1023 17.0024 27.804 16.5526C27.5057 16.1027 27.0772 15.7524 26.5185 15.5014C25.9645 15.2505 25.3016 15.125 24.5298 15.125H23.6776V13.9318H24.5298C25.1596 13.9318 25.7159 13.8182 26.1989 13.5909C26.6866 13.3589 27.0701 13.0346 27.3494 12.6179C27.6288 12.2012 27.7685 11.7112 27.7685 11.1477C27.7685 10.6127 27.6477 10.1416 27.4062 9.73438C27.1648 9.32718 26.8239 9.00758 26.3835 8.77557C25.9479 8.54356 25.4389 8.42756 24.8565 8.42756C24.2931 8.42756 23.777 8.53646 23.3082 8.75426C22.8395 8.97206 22.4607 9.27983 22.1719 9.67756C21.8878 10.0753 21.7363 10.5464 21.7173 11.0909H20.4318C20.4508 10.3333 20.6591 9.66809 21.0568 9.09517C21.4593 8.51752 21.992 8.06771 22.6548 7.74574C23.3224 7.41903 24.0611 7.25568 24.8707 7.25568C25.7277 7.25568 26.4688 7.43087 27.0938 7.78125C27.7188 8.13163 28.2017 8.59801 28.5426 9.1804C28.8883 9.75805 29.0611 10.3949 29.0611 11.0909C29.0611 11.9195 28.8362 12.6297 28.3864 13.2216C27.9366 13.8087 27.3305 14.2159 26.5682 14.4432V14.5355C27.4962 14.7202 28.2254 15.1321 28.7557 15.7713C29.2907 16.4058 29.5582 17.1847 29.5582 18.108C29.5582 18.8845 29.3546 19.5829 28.9474 20.2031C28.5402 20.8187 27.9815 21.3063 27.2713 21.6662C26.5658 22.0213 25.7562 22.1989 24.8423 22.1989Z" fill="#8A8A8A"/>
<rect x="0.5" y="0.5" width="49" height="29" rx="14.5" stroke="#8A8A8A"/>
</svg>
